<?xml version="1.0" encoding="UTF-8" standalone="no"?>
<svg
   xmlns:dc="http://purl.org/dc/elements/1.1/"
   xmlns:cc="http://creativecommons.org/ns#"
   xmlns:rdf="http://www.w3.org/1999/02/22-rdf-syntax-ns#"
   xmlns:svg="http://www.w3.org/2000/svg"
   xmlns="http://www.w3.org/2000/svg"
   xmlns:sodipodi="http://sodipodi.sourceforge.net/DTD/sodipodi-0.dtd"
   xmlns:inkscape="http://www.inkscape.org/namespaces/inkscape"
   class="ghost-svg"
   viewBox="0 0 565.05383 264.51346"
   version="1.1"
   id="svg20"
   sodipodi:docname="ghost-fedora-logo.src.svg"
   inkscape:version="0.92.4 (unknown)"
   width="565.05383"
   height="264.51346"
   inkscape:export-filename="/home/todd/Work/Writing/blog.errantruminate.com/01-blog-post-deploy-ghost-on-fedora/ghost-fedora-logo.png"
   inkscape:export-xdpi="300.14352"
   inkscape:export-ydpi="300.14352">
  <metadata
     id="metadata26">
    <rdf:RDF>
      <cc:Work
         rdf:about="">
        <dc:format>image/svg+xml</dc:format>
        <dc:type
           rdf:resource="http://purl.org/dc/dcmitype/StillImage" />
        <dc:title>Ghost Logo</dc:title>
      </cc:Work>
    </rdf:RDF>
  </metadata>
  <defs
     id="defs24" />
  <sodipodi:namedview
     pagecolor="#343f44"
     bordercolor="#666666"
     borderopacity="1"
     objecttolerance="10"
     gridtolerance="10"
     guidetolerance="10"
     inkscape:pageopacity="0"
     inkscape:pageshadow="2"
     inkscape:window-width="2048"
     inkscape:window-height="1081"
     id="namedview22"
     showgrid="false"
     inkscape:pagecheckerboard="true"
     inkscape:zoom="1.0547667"
     inkscape:cx="-180.60867"
     inkscape:cy="283.00096"
     inkscape:window-x="0"
     inkscape:window-y="34"
     inkscape:window-maximized="1"
     inkscape:current-layer="g11328"
     fit-margin-top="0"
     fit-margin-left="0"
     fit-margin-right="0"
     fit-margin-bottom="0" />
  <title
     id="title2">Ghost Logo</title>
  <rect
     style="opacity:1;fill:#75787b;fill-opacity:1;stroke:none;stroke-width:40;stroke-linecap:round;stroke-miterlimit:4;stroke-dasharray:none;stroke-opacity:1"
     id="rect833"
     width="565.05383"
     height="264.51346"
     x="0"
     y="0"
     rx="8.532692"
     ry="8.532692" />
  <g
     id="g18"
     style="fill:none;fill-rule:evenodd"
     transform="translate(36.026917,51.756729)">
    <path
       d="m 328.52,37.36 c -27.017,0 -40.97,19.323 -40.97,43.16 0,23.837 13.61,43.162 40.97,43.162 27.36,0 40.968,-19.325 40.968,-43.163 0,-23.84 -13.954,-43.16 -40.97,-43.16 z m 20.438,43.237 c -0.02,15.328 -5.126,27.743 -20.44,27.743 -15.312,0 -20.42,-12.414 -20.435,-27.743 v -0.078 c 0.016,-15.33 5.124,-27.74 20.437,-27.74 15.312,0 20.42,12.41 20.438,27.74 v 0.07 z M 207.553,5.19 c 0,-1.103 0.885,-2.124 1.984,-2.282 0,0 13.577,-1.95 14.784,-2.115 1.37,-0.187 3.19,0.798 3.19,2.744 v 44.236 c 3.23,-3.105 6.79,-5.608 10.66,-7.515 3.88,-1.906 8.43,-2.86 13.66,-2.86 4.53,0 8.53,0.776 12.03,2.33 3.5,1.55 6.43,3.73 8.77,6.533 2.34,2.81 4.12,6.16 5.33,10.05 1.21,3.9 1.82,8.19 1.82,12.87 v 51.35 c 0,1.1 -0.89,2 -2,2 h -15.95 c -1.1,0 -2,-0.9 -2,-1.99 V 69.18 c 0,-5.118 -1.17,-9.08 -3.51,-11.888 -2.35,-2.804 -5.86,-4.207 -10.544,-4.207 -3.45,0 -6.677,0.79 -9.69,2.37 -3.02,1.58 -5.87,3.73 -8.564,6.46 v 58.617 c 0,1.102 -0.894,2 -2.002,2 h -15.94 c -1.11,0 -2.005,-0.895 -2.005,-2 V 5.188 Z m 244.007,95.327 v -43.68 h -13.482 c -1.1,0 -1.742,-0.87 -1.443,-1.916 l 3,-10.49 c 0.262,-0.9 0.942,-1.87 2.308,-2.07 l 9.597,-1.35 3.508,-23.49 c 0.163,-1.09 1.18,-2.1 2.274,-2.26 0,0 9.192,-1.31 10.963,-1.58 1.673,-0.25 3.19,0.97 3.19,2.81 v 24.52 h 17.565 c 1.106,0 2.002,0.9 2.002,2.01 v 11.82 c 0,1.11 -0.89,2.01 -2.002,2.01 h -17.566 v 43.08 c 0,6.02 3.623,8.32 7.095,8.32 2.12,0 5.02,-1.14 7.19,-2.16 1.34,-0.62 3.41,-0.16 3.95,1.73 l 2.45,8.65 c 0.3,1.07 -0.25,2.37 -1.23,2.86 0,0 -7.29,4.37 -17.06,4.37 -13.73,0 -22.33,-8.08 -22.33,-23.16 z m -44.584,-47.74 c -7.084,0 -12.657,2.476 -12.657,8.433 0,7.44 12.01,9.606 20.23,12.64 5.49,2.027 20.24,5.98 20.24,22.016 0,19.48 -16,27.807 -33.06,27.807 -17.06,0 -25.4,-5.465 -25.4,-5.465 -0.96,-0.527 -1.5,-1.822 -1.2,-2.89 0,0 2.1,-7.52 2.64,-9.386 0.48,-1.68 2.41,-2.27 3.64,-1.792 4.39,1.712 12.32,4.092 21.28,4.092 9.07,0 13.46,-2.803 13.46,-8.777 0,-7.95 -12.26,-10.38 -20.36,-12.967 -5.59,-1.78 -20.36,-5.93 -20.36,-23.566 0,-17.373 15.08,-25.524 31.2,-25.524 13.64,0 23.5,4.69 23.5,4.69 1.01,0.427 1.58,1.635 1.28,2.698 l -2.658,9.357 c -0.488,1.74 -1.898,2.537 -3.666,1.957 -3.89,-1.277 -11.2,-3.322 -18.15,-3.322 z M 196.663,37.497 c -6.695,0.775 -11.472,3.962 -14.562,6.93 -6.06,-4.81 -14.49,-7.106 -23.94,-7.106 -18.95,0 -33.76,9.26 -33.76,29.43 0,11.58 4.88,19.56 12.62,24.26 -5.75,2.75 -9.57,8.59 -9.57,14.34 0,9.61 7.5,12.61 7.5,12.61 0,0 -13.11,6.44 -13.11,19.32 0,16.49 15.01,23.16 33.34,23.16 26.43,0 44.61,-11.04 44.61,-31.31 0,-12.47 -9.44,-19.36 -30.01,-20.18 -12.2,-0.48 -20.11,-0.93 -22.07,-1.58 -2.59,-0.87 -3.86,-2.96 -3.86,-5.28 0,-2.55 2.08,-4.98 5.35,-6.65 2.86,0.516 5.87,0.768 8.99,0.768 18.97,0 33.76,-9.223 33.76,-29.425 0,-4.897 -0.87,-9.15 -2.46,-12.78 2.79,-1.506 8.34,-2.25 8.34,-2.25 1.09,-0.17 1.975,-1.21 1.974,-2.31 V 40.3 c 0,-1.88 -1.59,-2.955 -3.1,-2.78 z m -49.13,85.132 c 0,0 9.954,0.38 19.9,0.84 11.172,0.52 14.654,2.96 14.654,8.81 0,7.15 -9.71,14.1 -23.28,14.1 -12.88,0 -19.314,-4.54 -19.314,-12.08 0,-4.33 2.26,-9.18 8.04,-11.69 z m 10.66,-40.54 c -8.978,0 -15.983,-4.83 -15.983,-15.35 0,-10.53 7.01,-15.35 15.983,-15.35 8.974,0 15.984,4.81 15.984,15.34 0,10.53 -7.002,15.34 -15.984,15.34 z"
       id="path4"
       inkscape:connector-curvature="0"
       style="fill:#2d3134" />
    <g
       transform="translate(0,36)"
       id="g16"
       style="opacity:0.6;fill:#2e3134">
      <rect
         x="0.20900001"
         y="69.016998"
         width="33.643002"
         height="17.014"
         rx="4"
         id="rect6" />
      <rect
         x="50.672001"
         y="69.016998"
         width="33.622002"
         height="17.014"
         rx="4"
         id="rect8" />
      <rect
         x="0.184"
         y="34.990002"
         width="84.121002"
         height="17.014"
         rx="4"
         id="rect10" />
      <rect
         x="0.20900001"
         y="0.96399999"
         width="50.469002"
         height="17.013"
         rx="4"
         id="rect12" />
      <rect
         x="67.494003"
         y="0.96399999"
         width="16.820999"
         height="17.013"
         rx="4"
         id="rect14" />
    </g>
  </g>
  <g
     id="g11328"
     transform="translate(-929.82265,-387.67479)">
    <g
       id="g5247"
       transform="matrix(0.39956663,0,0,0.39956663,1174.1775,510.1458)"
       style="fill:#2a4d7f;fill-opacity:1">
      <path
         style="font-style:normal;font-variant:normal;font-weight:bold;font-stretch:expanded;font-size:11.72808552px;line-height:89.99999762%;font-family:Comfortaa;-inkscape-font-specification:'Comfortaa Bold Expanded';text-align:start;writing-mode:lr-tb;text-anchor:start;fill:#2a4d7f;fill-opacity:1;stroke:none"
         id="path4724"
         d="m 703.99523,303.93739 v 4.61564 c 0,0.30924 -0.18707,0.49631 -0.5612,0.56121 h -0.0401 c -0.31687,0 -0.51158,-0.19661 -0.58411,-0.58984 v -7.3186 c 0.0458,-0.42376 0.22524,-0.63564 0.5383,-0.63565 h 0.0859 c 0.31687,10e-6 0.52875,0.22525 0.63565,0.67574 l 2.62851,5.87549 c 0.0344,-0.13362 0.61083,-1.47555 1.72944,-4.0258 l 1.0766,-2.31927 c 0.12979,-0.13743 0.27105,-0.20615 0.42377,-0.20616 h 0.0859 c 0.31304,10e-6 0.49248,0.21189 0.5383,0.63565 v 7.3186 c -0.0725,0.39323 -0.26725,0.58984 -0.58412,0.58984 h -0.0401 c -0.37415,-0.0649 -0.56122,-0.25197 -0.56121,-0.56121 v -4.62136 c -1.4202,3.21453 -2.16275,4.87334 -2.22765,4.97641 -0.15653,0.13744 -0.30924,0.20616 -0.45813,0.20616 -0.33596,0 -0.61275,-0.33978 -0.83036,-1.01933 l -1.85542,-4.15752 m -7.79387,-3.39015 h 5.3601 c 0.36268,0.0687 0.54402,0.2558 0.54402,0.56121 v 0.0859 c 0,0.31306 -0.21189,0.49249 -0.63565,0.5383 h -1.99286 v 6.82038 c 0,0.30924 -0.19089,0.49631 -0.57266,0.56121 h -0.0286 c -0.31688,0 -0.51158,-0.19661 -0.58411,-0.58984 v -6.79175 h -2.03867 c -0.39323,-0.0763 -0.58985,-0.28251 -0.58985,-0.61847 0.084,-0.37795 0.26343,-0.56693 0.53831,-0.56694"
         inkscape:connector-curvature="0" />
      <path
         style="fill:#2a4d7f;fill-opacity:1"
         id="path17"
         d="m 264.95202,271.6315 c 0,0 0,0 -67.46881,0 1.09192,14.6258 12.88236,25.54501 28.60199,25.54501 11.1351,0 20.74362,-4.5855 28.38515,-12.0073 1.52946,-1.53425 3.27576,-1.96987 5.23988,-1.96987 2.62042,0 5.24179,1.31261 6.98714,3.49645 1.09288,1.5285 1.74823,3.27576 1.74823,5.02015 0,2.40261 -1.09288,5.02111 -3.05892,6.9881 -9.17098,9.82345 -24.67281,16.37498 -39.95874,16.37498 -27.72884,0 -49.99904,-22.2702 -49.99904,-50.00096 0,-27.72788 21.61581,-49.99904 49.34466,-49.99904 27.51199,0 48.03588,21.39704 48.03588,49.5615 0.002,4.15084 -3.70946,6.99098 -7.85742,6.99098 z m -40.1775,-38.64805 c -14.62867,0 -24.67185,9.6066 -26.85474,23.57609 32.96872,0 53.71138,0 53.71138,0 -1.96507,-13.31414 -12.44578,-23.57609 -26.85664,-23.57609 z"
         inkscape:connector-curvature="0" />
      <path
         style="fill:#2a4d7f;fill-opacity:1"
         id="path19"
         d="m 457.74132,315.07998 c -27.72885,0 -49.99809,-22.2702 -49.99809,-50.00096 0,-27.72788 22.26924,-49.99904 49.99809,-49.99904 27.73172,0 50.00096,22.27116 50.00096,49.99904 9.5e-4,27.73076 -22.26828,50.00096 -50.00096,50.00096 z m 0,-81.00653 c -17.46594,0 -28.82173,13.97621 -28.82173,31.00461 0,17.0284 11.35579,31.00365 28.82173,31.00365 17.46785,0 28.8246,-13.97525 28.8246,-31.00365 0,-17.0284 -11.35675,-31.00461 -28.8246,-31.00461 z"
         inkscape:connector-curvature="0" />
      <path
         style="fill:#2a4d7f;fill-opacity:1"
         id="path21"
         d="m 579.93667,215.07902 c -14.64978,0 -24.33986,4.33314 -32.89484,15.20917 l -0.78967,-5.05853 v 0 c -0.66398,-5.28113 -5.16888,-9.35905 -10.62272,-9.35905 -5.91729,0 -10.7158,4.79179 -10.7158,10.71196 0,0.008 0,0.0163 0,0.024 v 0 0.01 0 76.89119 c 0,5.89523 4.80234,10.69949 10.69853,10.69949 5.89522,0 10.69948,-4.80522 10.69948,-10.69949 v -41.26559 c 0,-18.77662 16.37497,-28.16734 33.62502,-28.16734 5.24084,0 9.38688,-4.36672 9.38688,-9.60756 0,-5.24083 -4.14604,-9.38783 -9.38688,-9.38783 z"
         inkscape:connector-curvature="0" />
      <path
         style="fill:#2a4d7f;fill-opacity:1"
         id="path23"
         d="m 692.81904,265.07806 c 0.21972,-26.85473 -18.99732,-49.99904 -50.00192,-49.99904 -27.72981,0 -50.21973,22.27116 -50.21973,49.99904 0,27.73076 21.83458,50.00096 48.25561,50.00096 13.18557,0 25.05278,-6.78757 30.34734,-13.87833 l 2.60699,6.61677 v 0 c 1.39896,3.71713 4.98465,6.36346 9.19017,6.36346 5.42027,0 9.81482,-4.39071 9.82154,-9.80714 v 0 -25.64575 0 z m -50.00192,31.00461 c -17.46882,0 -28.82173,-13.97525 -28.82173,-31.00365 0,-17.0284 11.35291,-31.00461 28.82173,-31.00461 17.46689,0 28.82172,13.97621 28.82172,31.00461 0,17.0284 -11.35483,31.00365 -28.82172,31.00365 z"
         inkscape:connector-curvature="0" />
      <path
         style="fill:#2a4d7f;fill-opacity:1"
         id="path25"
         d="m 390.57091,175.5559 c 0,-5.89331 -4.80234,-10.47976 -10.69661,-10.47976 -5.89522,0 -10.7014,4.58645 -10.7014,10.47976 v 56.33467 c -5.45672,-10.04318 -17.24717,-16.81155 -31.22241,-16.81155 -28.38419,0 -47.37958,21.39704 -47.37958,49.99904 0,28.60487 19.65074,50.00096 47.37958,50.00096 12.36903,0 23.09346,-5.10459 29.51641,-13.97812 l 2.37574,6.02475 c 1.47189,4.1374 5.41739,7.09653 10.05373,7.09653 5.86836,0 10.6755,-4.7774 10.6755,-10.66974 0,-0.0163 0,-0.0297 0,-0.0461 v 0 -127.95048 h -9.6e-4 z m -50.00096,120.52677 c -17.46594,0 -28.602,-13.97525 -28.602,-31.00365 0,-17.0284 11.1351,-31.00461 28.602,-31.00461 17.46881,0 28.60295,13.31894 28.60295,31.00461 0,17.68183 -11.13414,31.00365 -28.60295,31.00365 z"
         inkscape:connector-curvature="0" />
      <path
         style="fill:#2a4d7f;fill-opacity:1"
         id="path27"
         d="m 167.85454,165.72285 c -1.95164,-0.28881 -3.9407,-0.43466 -5.91633,-0.43466 -22.11092,0 -40.10075,17.99079 -40.10075,40.10267 v 12.52639 h -13.10209 c -4.8033,0 -8.73537,3.9311 -8.73537,8.73249 0,4.80617 3.93207,9.64977 8.73537,9.64977 h 13.10113 v 67.20879 c 0,5.89523 4.80426,10.69949 10.69756,10.69949 5.89714,0 10.70044,-4.80522 10.70044,-10.69949 v -67.20879 h 14.48571 c 4.80234,0 8.73249,-4.8436 8.73249,-9.64977 0,-4.80139 -3.92919,-8.73249 -8.73249,-8.73249 h -14.47899 v -12.52639 c 0,-10.30992 8.38707,-20.08636 18.69699,-20.08636 0.9288,0 1.86432,0.0691 2.78161,0.20438 5.84821,0.86548 11.28766,-1.78277 12.15506,-7.63193 0.86356,-5.84629 -3.1731,-11.2867 -9.02034,-12.1541 z"
         inkscape:connector-curvature="0" />
    </g>
    <g
       id="g918"
       transform="matrix(0.73884868,0,0,0.73884868,741.93922,402.70633)">
      <g
         id="g5241">
        <path
           inkscape:connector-curvature="0"
           d="m 799.33773,208.89468 v 4.61564 c 0,0.30924 -0.18707,0.49631 -0.5612,0.56121 h -0.0401 c -0.31687,0 -0.51158,-0.19661 -0.58411,-0.58984 v -7.3186 c 0.0458,-0.42376 0.22524,-0.63564 0.5383,-0.63565 h 0.0859 c 0.31687,10e-6 0.52875,0.22525 0.63565,0.67574 l 2.62851,5.87549 c 0.0344,-0.13362 0.61083,-1.47555 1.72944,-4.0258 l 1.0766,-2.31927 c 0.12979,-0.13743 0.27105,-0.20615 0.42377,-0.20616 h 0.0859 c 0.31304,10e-6 0.49248,0.21189 0.5383,0.63565 v 7.3186 c -0.0725,0.39323 -0.26725,0.58984 -0.58412,0.58984 h -0.0401 c -0.37415,-0.0649 -0.56122,-0.25197 -0.56121,-0.56121 v -4.62136 c -1.4202,3.21453 -2.16275,4.87334 -2.22765,4.97641 -0.15653,0.13744 -0.30924,0.20616 -0.45813,0.20616 -0.33596,0 -0.61275,-0.33978 -0.83036,-1.01933 l -1.85542,-4.15752 m -7.79387,-3.39015 h 5.3601 c 0.36268,0.0687 0.54402,0.2558 0.54402,0.56121 v 0.0859 c 0,0.31306 -0.21189,0.49249 -0.63565,0.5383 h -1.99286 v 6.82038 c 0,0.30924 -0.19089,0.49631 -0.57266,0.56121 h -0.0286 c -0.31688,0 -0.51158,-0.19661 -0.58411,-0.58984 v -6.79175 h -2.03867 c -0.39323,-0.0763 -0.58985,-0.28251 -0.58985,-0.61847 0.084,-0.37795 0.26343,-0.56693 0.53831,-0.56694"
           id="path5239"
           style="font-style:normal;font-variant:normal;font-weight:bold;font-stretch:expanded;font-size:11.72808552px;line-height:89.99999762%;font-family:Comfortaa;-inkscape-font-specification:'Comfortaa Bold Expanded';text-align:start;writing-mode:lr-tb;text-anchor:start;fill:#3c6eb4;fill-opacity:1;stroke:none" />
        <path
           inkscape:connector-curvature="0"
           d="m 807.77586,159.90439 c 0,-33.08386 -26.81923,-59.90405 -59.90309,-59.90405 -33.06851,0 -59.87718,26.79812 -59.90117,59.86183 l -0.002,-0.002 v 46.35579 l 0.002,0.002 c 0.0182,7.50719 6.10631,13.58472 13.61831,13.58472 0.0211,0 0.0422,-0.002 0.0643,-0.002 l 0.004,0.002 h 46.23777 v 0 c 33.07426,-0.0134 59.88006,-26.82403 59.88006,-59.89829 z"
           id="path35"
           style="fill:#294172;fill-opacity:1" />
        <path
           inkscape:connector-curvature="0"
           d="m 765.46056,114.20011 c -15.52773,0 -28.11456,12.58684 -28.11456,28.11456 0,0.006 0,0.0125 0,0.0202 v 14.88103 h -14.83401 c -0.003,0 -0.003,0 -0.005,0 -15.52869,0 -28.11457,12.52542 -28.11457,28.05123 0,15.52773 12.58588,28.11553 28.11457,28.11553 15.52677,0 28.11456,-12.58876 28.11456,-28.11553 0,-0.005 0,-0.0125 0,-0.0182 v -14.94435 h 14.83305 c 0.003,0 0.005,0 0.006,0 15.52677,0 28.11457,-12.4621 28.11457,-27.98983 0,-15.52772 -12.5878,-28.11456 -28.11457,-28.11456 z m -28.1136,71.09192 c -0.0134,8.18365 -6.65324,14.81577 -14.83881,14.81577 -8.19516,0 -14.90021,-6.64459 -14.90021,-14.83976 0,-8.19612 6.70505,-14.9645 14.90021,-14.9645 0.008,0 0.0144,0.002 0.0201,0.002 h 12.71445 c 0.004,0 0.007,-0.002 0.01,-0.002 1.15717,0 2.09653,0.93649 2.09653,2.09365 0,9.6e-4 -9.6e-4,0.003 -9.6e-4,0.005 v 12.89004 h -9.6e-4 z m 28.11264,-28.07714 c -0.005,0 -0.01,0 -0.0144,0 h -12.72308 c -0.002,0 -0.006,0 -0.006,0 -1.15909,0 -2.09557,-0.9384 -2.09557,-2.09557 v -0.002 -12.82767 c 0.0144,-8.18653 6.65228,-14.81578 14.83784,-14.81578 8.19613,0 14.90213,6.64364 14.90213,14.84072 0.002,8.19517 -6.70504,14.90022 -14.90117,14.90022 z"
           id="path39"
           style="fill:#3c6eb4;fill-opacity:1" />
        <path
           inkscape:connector-curvature="0"
           d="m 737.34696,157.21489 v -14.88102 c 0,-0.008 0,-0.0144 0,-0.0202 0,-15.52773 12.58683,-28.11457 28.11456,-28.11457 2.35656,0 4.02994,0.26387 6.21186,0.83573 3.17885,0.83286 5.77624,3.43792 5.7772,6.47093 9.6e-4,3.66532 -2.65975,6.32988 -6.63596,6.32988 -1.89503,0 -2.57916,-0.3627 -5.35406,-0.3627 -8.18557,0 -14.82345,6.62925 -14.83784,14.81578 v 12.82767 0.002 c 0,1.15717 0.93648,2.09557 2.09557,2.09557 0,0 0.004,0 0.006,0 h 9.74382 c 3.63174,0 6.56304,2.90539 6.56591,6.54577 0,3.64325 -2.93513,6.54289 -6.56591,6.54289 h -11.84514 v 14.94434 c 0,0.006 0,0.0134 0,0.0202 0,15.52581 -12.58779,28.11361 -28.11457,28.11361 -2.35559,0 -4.02993,-0.26578 -6.2109,-0.83573 -3.17885,-0.8319 -5.7772,-3.43888 -5.77816,-6.47093 0,-3.66532 2.65976,-6.33084 6.63693,-6.33084 1.89311,0 2.57915,0.36366 5.35213,0.36366 8.18557,0 14.82537,-6.63021 14.83977,-14.81578 0,0 0,-12.89388 0,-12.89388 0,-1.15525 -0.93936,-2.09173 -2.09653,-2.09173 -0.002,0 -0.003,0 -0.006,0 l -9.74285,-0.002 c -3.63174,0 -6.56688,-2.89771 -6.56688,-6.53905 -0.002,-3.66436 2.96489,-6.5496 6.63597,-6.5496 h 11.77509 v 0 z"
           id="path41"
           style="fill:#ffffff" />
      </g>
    </g>
  </g>
</svg>
